<svg version="1.0" xmlns="http://www.w3.org/2000/svg" width="200" height="200" viewBox="0 0 200 200" preserveAspectRatio="xMidYMid meet">\
<g fill="#970d0dee" stroke="none">
<path d="M890 1734 c-123 -24 -282 -87 -264 -104 11 -10 1084 -651 1102 -657 9 -4 12 10 12 49 0 180 -81 361 -225 504 -66 66 -99 90 -176 128 -52 25 -121 53 -154 62 -60 15 -248 27 -295 18z"/>
<path d="M483 1503 c6 -11 446 -749 599 -1005 l130 -216 37 13 c178 62 322 193 413 372 52 103 52 105 33 120 -11 8 -139 86 -285 173 -146 86 -413 246 -593 354 -181 108 -331 196 -333 196 -3 0 -3 -3 -1 -7z"/>
<path d="M320 1307 c-49 -108 -64 -180 -63 -312 0 -81 6 -141 17 -185 83 -312 373 -550 670 -550 42 0 76 2 76 4 0 2 -125 213 -277 468 -152 254 -299 502 -327 550 -28 48 -55 87 -59 88 -5 0 -21 -28 -37 -63z"/></g></svg>
