<?xml version="1.0" encoding="utf-8"?>
<svg
  version="1.1" id="Layer_1" xmlns="http://www.w3.org/2000/svg" xmlns:xlink="http://www.w3.org/1999/xlink" x="0px" y="0px" viewBox="0 0 108.35 122.88" style="enable-background: new 0 0 108.35 122.88" xml:space="preserve">
  <style type="text/css">.HTMLst1 {fill-rule: evenodd;clip-rule: evenodd;fill: #e44d26;} .HTMLst2 {fill-rule: evenodd;clip-rule: evenodd;fill: #f16529;} .HTMLst3 {fill-rule: evenodd;clip-rule: evenodd;fill: #ebebeb;} .HTMLst4 {fill-rule: evenodd;clip-rule: evenodd;fill: #ffffff;}
  </style>
  <g>
    <polygon class="HTMLst1" points="108.35,0 98.48,110.58 54.11,122.88 9.86,110.6 0,0 108.35,0"/>
    <polygon class="HTMLst2" points="54.17,113.48 90.03,103.54 98.46,9.04 54.17,9.04 54.17,113.48"/>
    <path class="HTMLst3" d="M34.99,36.17h19.19V22.61H20.16l0.32,3.64l3.33,37.38h30.35V50.06H36.23L34.99,36.17L34.99,36.17L34.99,36.17z M38.04,70.41H24.43l1.9,21.3l27.79,7.71l0.06-0.02V85.29l-0.06,0.02l-15.11-4.08L38.04,70.41L38.04,70.41L38.04,70.41z"/>
    <path class="HTMLst4" d="M54.13,63.63h16.7l-1.57,17.59L54.13,85.3v14.11l27.81-7.71l0.2-2.29l3.19-35.71l0.33-3.64H54.13V63.63 L54.13,63.63z M54.13,36.14v0.03h32.76l0.27-3.05l0.62-6.88l0.32-3.64H54.13V36.14L54.13,36.14L54.13,36.14z"/>
  </g>
</svg>
