<?xml version="1.0" standalone="no"?>
<svg version="1.0" xmlns="http://www.w3.org/2000/svg"
 width="345.000000pt" height="146.000000pt" viewBox="0 0 345.000000 146.000000"
 preserveAspectRatio="xMidYMid meet">
<g transform="translate(0.000000,146.000000) scale(0.100000,-0.100000)"
fill="#000000" stroke="none">
<path d="M813 1446 c-84 -27 -144 -83 -168 -156 -5 -14 -32 -162 -60 -330
l-51 -305 -119 -3 -120 -2 -16 32 c-51 105 -208 104 -261 -2 -23 -44 -23 -86
0 -130 52 -105 213 -107 262 -3 l15 33 114 0 c112 0 113 0 108 -23 -13 -51
-48 -327 -49 -382 -1 -66 18 -115 55 -140 71 -46 155 -43 214 8 73 64 84 164
31 279 -29 63 -30 71 -19 108 6 22 22 47 35 55 21 14 151 35 218 35 l26 0 -5
-92 c-5 -84 15 -259 31 -275 2 -3 19 -2 36 2 30 7 32 9 26 39 -16 75 -25 190
-19 254 l6 69 75 6 c148 11 235 87 263 228 21 105 73 156 150 146 83 -11 122
-67 134 -194 l7 -70 -128 -118 c-132 -121 -202 -165 -261 -165 -32 0 -33 -2
-33 -40 0 -46 1 -46 85 -25 79 21 111 42 237 157 l107 98 6 -47 c19 -149 98
-233 216 -233 105 0 189 72 205 177 13 91 76 143 173 143 l54 0 -7 -42 c-12
-77 -68 -227 -111 -300 l-43 -73 30 -19 c28 -18 29 -18 43 0 53 70 125 246
149 364 l13 65 89 3 89 2 22 -38 c72 -127 273 -73 273 73 0 85 -70 149 -156
142 -58 -4 -95 -27 -121 -75 l-18 -32 -87 0 -88 0 0 68 c0 88 -15 174 -45 270
-34 104 -34 104 -73 90 -23 -9 -31 -17 -26 -28 42 -99 74 -246 74 -342 l0 -58
-67 0 c-85 0 -137 -23 -186 -80 -25 -30 -40 -60 -48 -99 -15 -69 -31 -96 -72
-121 -68 -42 -154 -13 -187 63 -10 23 -21 76 -25 117 l-6 75 138 124 c140 125
173 147 247 160 39 6 41 9 44 44 4 42 3 43 -79 23 -78 -18 -126 -49 -249 -161
l-105 -96 -12 58 c-15 78 -26 103 -58 142 -82 96 -227 95 -312 -3 -22 -24 -36
-56 -47 -107 -20 -87 -36 -119 -75 -152 -29 -24 -105 -47 -157 -47 -24 0 -25
3 -19 32 20 97 114 271 191 357 l47 52 -27 27 -27 27 -30 -35 c-100 -117 -192
-285 -221 -400 l-14 -55 -95 -7 c-173 -13 -225 -36 -260 -112 -27 -60 -24
-111 11 -181 50 -101 32 -189 -43 -214 -48 -16 -103 6 -113 46 -8 30 6 179 32
345 l17 106 45 13 c67 19 157 84 219 158 151 182 241 508 174 627 -13 23 -36
48 -52 58 -39 23 -115 29 -166 12z m145 -92 c18 -21 22 -37 22 -92 0 -169
-100 -396 -227 -514 -48 -44 -130 -94 -139 -85 -6 5 81 537 96 589 32 114 181
175 248 102z"/>
</g>
</svg>
