<svg version="1.0" xmlns="http://www.w3.org/2000/svg"
 width="512.000000pt" height="512.000000pt" viewBox="0 0 512.000000 512.000000"
 preserveAspectRatio="xMidYMid meet">
<g transform="translate(0.000000,512.000000) scale(0.100000,-0.100000)"
fill="#000000" stroke="none">
<path d="M3460 4743 c-27 -14 -1567 -1407 -1785 -1614 l-40 -38 -392 298
c-216 163 -404 303 -418 309 -35 16 -109 15 -148 -2 -43 -19 -312 -268 -334
-309 -21 -40 -22 -111 -4 -156 10 -22 128 -137 360 -349 190 -173 347 -318
348 -321 1 -3 -140 -134 -313 -291 -365 -330 -388 -354 -405 -410 -14 -48 -2
-116 29 -154 36 -47 289 -269 319 -282 40 -17 113 -18 149 -2 15 7 203 146
418 310 l391 297 35 -33 c114 -107 1740 -1585 1764 -1604 21 -16 42 -22 81
-22 60 0 106 26 142 79 l23 34 -2 531 -3 530 -667 505 c-367 279 -667 508
-667 511 0 3 301 232 669 510 l669 505 0 528 c1 506 0 529 -19 566 -37 73
-134 108 -200 74z"/>
</g>
</svg>
